<?xml version="1.0" encoding="utf-8"?>
<!-- Generator: Adobe Illustrator 24.3.0, SVG Export Plug-In . SVG Version: 6.00 Build 0)  -->
<svg version="1.1" id="Layer_1" xmlns="http://www.w3.org/2000/svg" xmlns:xlink="http://www.w3.org/1999/xlink" x="0px" y="0px"
	 viewBox="0 0 939.2 1289" style="enable-background:new 0 0 939.2 1289;" xml:space="preserve">
<style type="text/css">
	.st0{fill:#FCFBF7;}
</style>
<g id="Layer_2_1_">
	<g id="other">
		<path class="st0" d="M807.2,0c1.7,72.2,6.1,148.1,14,227.2c21,211.9,62.3,400.4,109.8,561.8c12.4,161.3-28.4,245-70.8,292
			c-11.1,12.4-20,20.3-120,107.3c-48.2,41.9-87.6,76.7-114,100.2"/>
		<path class="st0" d="M626.7,1289H313.1c-26.4-23.4-65.8-58.2-114-100.2c-100-87.1-109-95-120.1-107.4
			C36.7,1034.3-3.8,950.2,10,788c46.8-161.6,87.3-349.6,108.1-560.7c7.8-79.1,12.2-155,13.9-227.3h675.7"/>
	</g>
</g>
</svg>
