<?xml version="1.0" encoding="utf-8"?>
<!-- Generator: Adobe Illustrator 24.3.0, SVG Export Plug-In . SVG Version: 6.00 Build 0)  -->
<svg version="1.1" id="Layer_1" focusable="false" xmlns="http://www.w3.org/2000/svg" xmlns:xlink="http://www.w3.org/1999/xlink"
	 x="0px" y="0px" viewBox="0 0 576 512" style="enable-background:new 0 0 576 512;" xml:space="preserve">
<style type="text/css">
	.st0{fill:#07245C;}
</style>
<path class="st0" d="M151.2,167.4l25.9,8.6h4.7l5.2-26.1c0.7-3.6,1.8-7.6,3.2-11.8l-20.3-40.6l23.8-71.4c2.8-8.4-1.7-17.4-10.1-20.2
	l-15.2-5.1C160-2,151,2.5,148.2,10.9l-25.9,77.7c-2.7,8.1-2.1,16.8,1.7,24.4L151.2,167.4z M573.3,349.4l-52.8-79.1
	c-5.9-8.9-15.9-14.2-26.6-14.3H416l69-24.4c6.8-2.3,12.6-6.7,16.5-12.6l53.6-80.4c4.9-7.4,2.9-17.3-4.4-22.2l-13.3-8.9
	c-7.3-4.9-17.3-2.9-22.2,4.4l-50.6,75.8L404.1,208H368l-10.4-51.9c-2.2-11-17.4-60.1-69.6-60.1s-67.4,49.2-69.6,60.1L208,208h-36.1
	l-60.5-20.2L60.8,112c-4.9-7.3-14.8-9.3-22.2-4.4l-13.3,8.9c-7.4,4.9-9.3,14.8-4.4,22.2L74.5,219c3.9,5.9,9.8,10.4,16.5,12.6
	l69,24.4H82.1c-10.7,0-20.7,5.3-26.6,14.3L2.7,349.4c-4.9,7.4-2.9,17.3,4.4,22.2l13.3,8.9c7.4,4.9,17.3,2.9,22.2-4.4l48-72h47.1
	l-60.8,97.3c-3.2,5.1-4.9,11-4.9,17V496c0,8.8,7.2,16,16,16h16c8.8,0,16-7.2,16-16v-73.1l74.1-118.5c-1,14-2.1,28.1-2.1,42.2
	c0,53.1,40.8,101.4,96,101.4s96-48.4,96-101.4c0-14.1-1.1-28.2-2.1-42.2L456,422.9V496c0,8.8,7.2,16,16,16h16c8.8,0,16-7.2,16-16
	v-77.7c0-6-1.7-11.9-4.9-17L438.3,304h47.1l48,72c4.9,7.4,14.8,9.3,22.2,4.4l13.3-8.9C576.2,366.7,578.2,356.7,573.3,349.4z
	 M406.1,97.5l-20.3,40.6c1.4,4.2,2.5,8.2,3.2,11.8l5.2,26.1h4.7l25.9-8.6L452,113c3.8-7.6,4.4-16.4,1.7-24.4l-25.9-77.7
	C425,2.6,416-2,407.6,0.8l-15.2,5.1c-8.4,2.8-12.9,11.9-10.1,20.2L406.1,97.5L406.1,97.5z"/>
</svg>
